<?xml version="1.0" encoding="UTF-8" standalone="no"?>
<svg
    version="1.1"
    viewBox="0 0 96 96"
    xmlns="http://www.w3.org/2000/svg"
>
    <path
        fill="#faf4f3"
        d="M 83.6,31.4 45.8,29.5 H 92 V 25.8 H 39.8 v 7.8 6.2 c 0,0.1 -1.5,-9.1 -1.9,-11.7 h -4.1 v 6.8 6.2 c 0,0.1 -1.8,-10.9 -1.9,-12.3 -10.4,0 -27.9,0 -27.9,0 1.9,1.6 12.4,10.6 19.9,14.3 3.7,1.8 8.3,1.9 12.4,2 2.1,0.1 4.2,0.2 5.8,1.8 2.3,2.2 2.8,5.7 0.8,8.3 -1.9,2.6 -7.3,3.2 -7.3,3.2 L 31,63.8 v 6.4 h 10.3 l 0.3,-6.3 8.9,-6.3 c -0.9,0.8 -3.1,2.8 -6.2,7.7 -0.7,1.1 -1.3,2.3 -1.7,3.5 2.2,-1.9 6.8,-3.2 12.2,-3.2 5.3,0 9.9,1.3 12.1,3.2 -0.4,-1.2 -1,-2.4 -1.7,-3.5 C 62,60.4 59.9,58.4 59,57.6 l 8.9,6.3 0.3,6.3 h 9.6 v -6.4 l -4.5,-5.5 c 0,0 -6.7,-0.4 -8.4,-3.2 -5.2,-7.8 1.9,-20 18.7,-23.7 z"
    />
</svg>
